<svg width="48" height="48" viewBox="0 0 48 48" fill="none" xmlns="http://www.w3.org/2000/svg">
<path d="M15.986 4.5H35.904C37.1207 4.50044 38.3029 4.9043 39.2655 5.64836C40.2282 6.39243 40.9169 7.43469 41.224 8.612L43.312 16.626C43.806 18.514 43.292 20.168 42.172 21.346C41.96 21.566 41.7333 21.766 41.492 21.946V38C41.492 39.4587 40.9125 40.8576 39.8811 41.8891C38.8496 42.9205 37.4507 43.5 35.992 43.5H12.008C10.5493 43.5 9.15033 42.9205 8.11888 41.8891C7.08743 40.8576 6.50797 39.4587 6.50797 38V21.948C6.26664 21.768 6.03997 21.5667 5.82797 21.344C4.70797 20.168 4.19397 18.514 4.68797 16.624L6.77597 8.612C7.08302 7.43469 7.77178 6.39243 8.73443 5.64836C9.69708 4.9043 10.8793 4.50044 12.096 4.5H15.986ZM24 21.492C23.864 21.636 23.7213 21.7727 23.572 21.902C22.42 22.894 20.932 23.352 19.502 23.352C18.072 23.352 16.584 22.892 15.432 21.902C15.2804 21.7707 15.1356 21.6318 14.998 21.486C14.7833 21.7098 14.549 21.9139 14.298 22.096C12.998 23.036 11.372 23.344 9.88997 23.204C9.76296 23.1917 9.63625 23.1764 9.50997 23.158V38C9.50997 39.38 10.628 40.5 12.006 40.5H35.994C37.374 40.5 38.492 39.38 38.492 38V23.158C38.364 23.1767 38.2373 23.192 38.112 23.204C36.628 23.344 35.002 23.036 33.704 22.096C33.4515 21.9141 33.2159 21.71 33 21.486C32.863 21.6318 32.7188 21.7706 32.568 21.902C31.416 22.894 29.928 23.352 28.498 23.352C27.068 23.352 25.58 22.892 24.428 21.902C24.2786 21.7725 24.1358 21.6356 24 21.492Z" fill="black"/>
</svg>
