<svg width="40" height="40" viewBox="0 0 40 40" fill="none" xmlns="http://www.w3.org/2000/svg">
<path d="M20 0C8.98 0 0 8.98 0 20C0 31.02 8.98 40 20 40C31.02 40 40 31.02 40 20C40 8.98 31.02 0 20 0ZM2.02 20C2.02 17.4 2.58 14.92 3.58 12.68L12.16 36.18C6.16 33.26 2.02 27.12 2.02 20ZM20 37.98C18.24 37.98 16.54 37.72 14.92 37.24L20.32 21.56L25.84 36.7C25.88 36.78 25.92 36.88 25.96 36.94C24.1 37.62 22.1 37.98 20 37.98ZM22.48 11.56C23.56 11.5 24.54 11.38 24.54 11.38C25.5 11.26 25.4 9.84 24.42 9.9C24.42 9.9 21.5 10.12 19.62 10.12C17.86 10.12 14.88 9.9 14.88 9.9C13.92 9.86 13.8 11.34 14.78 11.4C14.78 11.4 15.7 11.52 16.66 11.58L19.46 19.26L15.52 31.06L8.98 11.56C10.06 11.52 11.04 11.4 11.04 11.4C12 11.28 11.9 9.86 10.92 9.92C10.92 9.92 8 10.14 6.12 10.14C5.78 10.14 5.38 10.14 4.96 10.12C8.2 5.24 13.72 2.02 20 2.02C24.68 2.02 28.94 3.8 32.14 6.74C32.06 6.74 31.98 6.72 31.9 6.72C30.14 6.72 28.88 8.26 28.88 9.92C28.88 11.4 29.74 12.66 30.64 14.14C31.32 15.34 32.12 16.88 32.12 19.1C32.12 20.64 31.52 22.42 30.76 24.92L28.96 30.92L22.48 11.56ZM35.78 11.38C38.0254 15.4915 38.5774 20.317 37.3186 24.8294C36.0598 29.3417 33.0895 33.1846 29.04 35.54L34.54 19.66C35.56 17.1 35.9 15.04 35.9 13.22C35.9 12.56 35.86 11.94 35.78 11.38Z" fill="black"/>
</svg>
